<svg xmlns="http://www.w3.org/2000/svg" xmlns:xlink="http://www.w3.org/1999/xlink" width="1080" height="1080" viewBox="0 0 1080 1080">
  <defs>
    <clipPath id="clip-Instagram_Post_4">
      <rect width="1080" height="1080"/>
    </clipPath>
  </defs>
  <g id="Instagram_Post_4" data-name="Instagram Post – 4" clip-path="url(#clip-Instagram_Post_4)">
    <rect width="1080" height="1080" fill="#fff"/>
    <path id="Path_8" data-name="Path 8" d="M3776.47,1318.963h594.262v194.086a216.584,216.584,0,0,1-14.494,33.975c-18.118,33.608-91.8,79.665-91.8,79.665l-75.692,34.365s39.456,3.905,75.692,24.993,50.993,25.721,75.15,59.358,31.141,61.506,31.141,61.506v179.051H3776.47V1812.54s3.624-37.464,24.157-67.135,31-36.318,72.471-59.358,86.965-24.993,86.965-24.993l-86.965-27.727-41.956-25.969s-18.133-14.726-30.515-33.78c-11.088-17.063-20.623-41.324-20.623-41.324a465.545,465.545,0,0,1-3.534-52.264Z" transform="translate(-3514 -1032)" fill="none" stroke="#000" stroke-width="6"/>
  </g>
</svg>
