<svg xmlns="http://www.w3.org/2000/svg" xmlns:xlink="http://www.w3.org/1999/xlink" width="1080" height="1080" viewBox="0 0 1080 1080">
  <defs>
    <clipPath id="clip-Instagram_Post_6">
      <rect width="1080" height="1080"/>
    </clipPath>
  </defs>
  <g id="Instagram_Post_6" data-name="Instagram Post – 6" clip-path="url(#clip-Instagram_Post_6)">
    <rect width="1080" height="1080" fill="#fff"/>
    <path id="Path_11" data-name="Path 11" d="M3695.829,3464.84c-71.074,73.807-140.439,206.045-150.348,430.542s79.274,381.679,150.348,456.512,133.947-157.182,133.947-157.182,37.245,170.85,72.44,170.85,80.641-170.85,80.641-170.85,51.938,170.85,86.108,170.85,79.275-170.85,79.275-170.85,50.23,232.015,125.746,157.182S4409.3,4126.713,4409.3,3895.382s-59.8-356.735-135.313-430.542-125.746,147.614-125.746,147.614-45.1-158.549-79.275-158.549-86.108,158.549-86.108,158.549-42.371-155.474-80.641-158.549-72.44,165.383-72.44,165.383S3766.9,3391.033,3695.829,3464.84Z" transform="translate(-3437 -3357)" fill="none" stroke="#000" stroke-width="6"/>
  </g>
</svg>
